<?xml version="1.0" encoding="UTF-8" standalone="no"?>
<svg
   xmlns:dc="http://purl.org/dc/elements/1.1/"
   xmlns:cc="http://creativecommons.org/ns#"
   xmlns:rdf="http://www.w3.org/1999/02/22-rdf-syntax-ns#"
   xmlns:svg="http://www.w3.org/2000/svg"
   xmlns="http://www.w3.org/2000/svg"
   xmlns:sodipodi="http://sodipodi.sourceforge.net/DTD/sodipodi-0.dtd"
   xmlns:inkscape="http://www.inkscape.org/namespaces/inkscape"
   width="1957"
   height="2500"
   viewBox="0 0 256 327"
   preserveAspectRatio="xMinYMin meet"
   version="1.1"
   id="svg56"
   sodipodi:docname="piwaterflow.svg"
   inkscape:version="1.0.2-2 (e86c870879, 2021-01-15)">
  <metadata
     id="metadata62">
    <rdf:RDF>
      <cc:Work
         rdf:about="">
        <dc:format>image/svg+xml</dc:format>
        <dc:type
           rdf:resource="http://purl.org/dc/dcmitype/StillImage" />
        <dc:title />
      </cc:Work>
    </rdf:RDF>
  </metadata>
  <defs
     id="defs60" />
  <sodipodi:namedview
     pagecolor="#ffffff"
     bordercolor="#666666"
     borderopacity="1"
     objecttolerance="10"
     gridtolerance="10"
     guidetolerance="10"
     inkscape:pageopacity="0"
     inkscape:pageshadow="2"
     inkscape:window-width="1920"
     inkscape:window-height="1017"
     id="namedview58"
     showgrid="false"
     inkscape:snap-bbox="false"
     inkscape:zoom="0.11313708"
     inkscape:cx="-1867.2777"
     inkscape:cy="1055.3609"
     inkscape:window-x="-8"
     inkscape:window-y="-8"
     inkscape:window-maximized="1"
     inkscape:current-layer="svg56"
     inkscape:document-rotation="0" />
  <path
     d="m 78.203918,26.121544 c -1.421902,0.04387 -2.953048,0.569449 -4.690642,1.93974 -4.253663,-1.640392 -8.380877,-2.210701 -12.070252,1.129435 -5.69707,-0.738907 -7.548209,0.786218 -8.951187,2.566821 -1.250723,-0.0258 -9.358058,-1.285991 -13.07668,4.260545 -9.343435,-1.10535 -12.296484,5.495784 -8.950326,11.652198 -1.908772,2.953909 -3.88636,5.872549 0.57633,11.505105 -1.578457,3.13627 -0.599556,6.5392 3.119066,10.656952 -0.980622,4.410219 0.947935,7.520683 4.408498,9.945572 -0.647726,6.034265 5.533633,9.543005 7.378751,10.792865 0.7088,3.515609 2.185755,6.834249 9.245373,8.668179 1.164704,5.240314 5.407184,6.145234 9.516334,7.244564 -13.579894,7.89401 -25.225211,18.27914 -25.146073,43.76241 l -1.98963,3.5483 c -15.571245,9.46903 -29.5803769,39.90444 -7.672937,64.64192 1.430504,7.74347 3.830447,13.30549 5.967171,19.46104 3.195623,24.80458 24.052765,36.41979 29.554571,37.79352 8.060885,6.14007 16.646488,11.96617 28.265999,16.04779 10.951136,11.29522 22.816666,15.60049 34.746716,15.59361 0.17548,0 24.32373,-4.29753 35.27659,-15.59361 11.61779,-4.08162 20.20339,-9.90772 28.26599,-16.04779 5.50009,-1.37373 26.35723,-12.98894 29.55286,-37.79352 2.13672,-6.15555 4.53666,-11.71757 5.96803,-19.46104 21.90572,-24.74006 7.89744,-55.17634 -7.67294,-64.64536 l -1.99307,-3.5483 c 0.0791,-25.48069 -11.56618,-35.86668 -25.14607,-43.76241 4.10829,-1.09933 8.35249,-2.00425 9.51547,-7.244564 7.05962,-1.8348 8.53743,-5.15257 9.24537,-8.668179 1.84598,-1.24987 8.02648,-4.7586 7.38047,-10.792866 3.45885,-2.424889 5.38826,-5.536213 4.40678,-9.945572 3.71948,-4.117752 4.69752,-7.520682 3.11907,-10.657812 4.46441,-5.629115 2.48338,-8.547756 0.57719,-11.501664 3.34444,-6.156414 0.39311,-12.758409 -8.95377,-11.652198 -3.71604,-5.546536 -11.82252,-4.287211 -13.07668,-4.261405 -1.40212,-1.779743 -3.25326,-3.304868 -8.95033,-2.565961 -3.68937,-3.340136 -7.81487,-2.770687 -12.07025,-1.129436 -5.05278,-3.987002 -8.3955,-0.791379 -12.21476,0.417195 -6.11771,-1.999093 -7.51725,0.738907 -10.52277,1.85458 -6.67167,-1.409859 -8.69915,1.659315 -11.89649,4.898809 l -3.7212,-0.07398 c -10.06256,5.930183 -15.06201,18.005596 -16.83401,24.213622 -1.772,-6.208886 -6.76027,-18.2843 -16.82112,-24.213622 l -3.72034,0.07398 c -3.20251,-3.239494 -5.22913,-6.308668 -11.900797,-4.898809 -3.00638,-1.115673 -4.399896,-3.853673 -10.522762,-1.85458 -2.506607,-0.7931 -4.811929,-2.441233 -7.525844,-2.356934 L 9.1320011,147.40471"
     id="path50"
     style="stroke-width:0.860195" />
  <path
     d="M 58.169983,52.210391 C 84.866987,65.974367 100.38748,77.108728 108.89051,86.591517 104.5362,104.04401 81.820177,104.84055 73.514137,104.3511 c 1.700605,-0.79138 3.119926,-1.74018 3.62314,-3.19649 -2.084252,-1.481254 -9.474185,-0.15655 -14.633633,-3.054554 1.981889,-0.41117 2.909179,-0.81116 3.835608,-2.27349 -4.873863,-1.55437 -10.124492,-2.89456 -13.212591,-5.469979 1.666197,0.0206 3.22229,0.37332 5.398582,-1.13632 -4.365488,-2.35263 -9.024303,-4.21753 -12.644002,-7.81401 2.257151,-0.0551 4.690642,-0.0224 5.398582,-0.85245 -3.995605,-2.47564 -7.367568,-5.228263 -10.15804,-8.239805 3.158635,0.381066 4.492797,0.05333 5.25665,-0.497193 -3.021004,-3.09412 -6.843709,-5.706531 -8.666462,-9.518915 2.344891,0.808584 4.491077,1.118254 6.037707,-0.07053 -1.026212,-2.315645 -5.423528,-3.681634 -7.955941,-9.093119 2.469619,0.239994 5.088052,0.538482 5.611911,0 -1.14578,-4.669137 -3.112185,-7.294452 -5.040742,-10.014387 5.284177,-0.07828 13.290869,0.02064 12.928727,-0.425797 l -3.26788,-3.338415 c 5.162029,-1.390075 10.443625,0.22279 14.278373,1.420181 1.72125,-1.358247 -0.03097,-3.076056 -2.131563,-4.829993 4.386994,0.585792 8.350771,1.59394 11.934342,2.983155 1.913934,-1.728131 -1.242981,-3.457123 -2.770687,-5.185254 6.777474,1.285131 9.648804,3.0924 12.50207,4.90139 2.070489,-1.98447 0.118707,-3.671311 -1.278249,-5.398583 5.110417,1.892429 7.742613,4.336242 10.5133,6.748228 0.939333,-1.267927 2.387041,-2.197797 0.639125,-5.25665 3.628301,2.091134 6.36114,4.555592 8.382598,7.316817 2.245108,-1.429644 1.337602,-3.384006 1.349645,-5.186114 3.771093,3.067454 6.164153,6.331893 9.093123,9.518915 0.59009,-0.430098 1.10621,-1.886408 1.56297,-4.190869 8.99506,8.726675 21.70616,30.708952 3.26702,39.424438 C 97.675287,68.678819 78.933363,59.270869 58.163961,52.213832 l 0.006,-0.0034 m 141.655159,0 c -26.69354,13.765655 -42.21404,24.896575 -50.7162,34.381085 4.35431,17.452493 27.06947,18.249033 35.37551,17.759583 -1.70061,-0.79138 -3.11993,-1.74018 -3.62228,-3.19649 2.08425,-1.481254 9.47418,-0.15655 14.63277,-3.054554 -1.98189,-0.41117 -2.90832,-0.81116 -3.83561,-2.27349 4.87473,-1.55437 10.12536,-2.89456 13.21259,-5.469979 -1.66619,0.0206 -3.22229,0.37332 -5.39858,-1.13632 4.36635,-2.35263 9.02517,-4.21753 12.64486,-7.81401 -2.25801,-0.0551 -4.6915,-0.0224 -5.39858,-0.85245 3.99561,-2.47564 7.36757,-5.228263 10.15804,-8.239805 -3.15949,0.381066 -4.4928,0.05333 -5.25665,-0.497193 3.02015,-3.09412 6.84371,-5.706531 8.66646,-9.518915 -2.34575,0.808584 -4.49193,1.118254 -6.03856,-0.07053 1.02621,-2.315645 5.42438,-3.681634 7.95594,-9.093119 -2.46876,0.239994 -5.08805,0.538482 -5.61191,0 1.14836,-4.670858 3.11476,-7.296172 5.04332,-10.016108 -5.28418,-0.07828 -13.29087,0.02065 -12.92873,-0.425796 l 3.26788,-3.339276 c -5.16203,-1.389215 -10.44362,0.223651 -14.27837,1.421042 -1.72125,-1.358248 0.0301,-3.076057 2.1307,-4.829994 -4.38613,0.584933 -8.35077,1.593941 -11.93348,2.983156 -1.91479,-1.728132 1.24298,-3.457123 2.77069,-5.185254 -6.77748,1.285131 -9.64881,3.0924 -12.50293,4.901389 -2.07049,-1.984469 -0.11785,-3.671311 1.27911,-5.398582 -5.11042,1.892429 -7.74262,4.336242 -10.5133,6.748228 -0.9402,-1.267927 -2.38704,-2.197798 -0.63999,-5.25665 -3.62744,2.091133 -6.36028,4.555591 -8.38174,7.316816 -2.2451,-1.429643 -1.3376,-3.384866 -1.34964,-5.186114 -3.7711,3.067455 -6.16416,6.331033 -9.09312,9.518915 -0.59009,-0.430097 -1.10621,-1.886407 -1.56297,-4.191729 -8.99506,8.727536 -21.70616,30.709813 -3.26702,39.425299 15.68393,-12.945924 34.42499,-22.352154 55.19525,-29.409191 h -0.003"
     fill="#75a928"
     id="path52"
     style="stroke-width:0.860195" />
  <path
     d="m 161.32885,229.92577 c 0.0929,16.28606 -14.14935,29.55801 -31.81001,29.64317 -17.66152,0.086 -32.054301,-13.04658 -32.147202,-29.33264 a 18.68343,18.68343 0 0 1 0,-0.31053 c -0.0929,-16.28521 14.148492,-29.55715 31.810012,-29.64317 17.66152,-0.086 32.05343,13.04657 32.1472,29.33264 v 0.31053 m -50.48226,-84.23801 c 13.25045,8.68194 15.63921,28.35976 5.33493,43.95165 -10.30428,15.59275 -29.398879,21.19606 -42.649319,12.51497 -13.25044,-8.68195 -15.638341,-28.35976 -5.334928,-43.95165 10.304273,-15.59275 29.398876,-21.19606 42.649317,-12.51497 m 35.76346,-1.57158 c -13.24958,8.68109 -15.63834,28.35976 -5.33492,43.95165 10.30427,15.59275 29.39887,21.19606 42.64931,12.51411 13.25044,-8.68108 15.6392,-28.3589 5.33493,-43.95165 C 178.95596,141.0384 159.86135,135.4351 146.61005,144.11618 M 44.621916,159.88097 c 14.305898,-3.83475 4.829993,59.18398 -6.810162,54.01335 -12.803999,-10.29825 -16.927772,-40.45754 6.810162,-54.01335 m 165.325134,-0.78536 c -14.30762,-3.83389 -4.82999,59.18742 6.81016,54.01679 12.804,-10.29911 16.92778,-40.46184 -6.81016,-54.01679 m -48.60702,-46.92964 c 24.68845,-4.16851 45.23162,10.49953 44.40239,37.27051 -0.81202,10.26385 -53.49809,-35.74195 -44.40239,-37.27051 m -68.213453,-0.78536 c -24.69017,-4.16936 -45.23162,10.50212 -44.402393,37.27138 0.812024,10.26298 53.498956,-35.74281 44.402393,-37.27138 m 35.464113,-6.24329 c -14.73514,-0.38365 -28.876742,10.93565 -28.91115,17.50152 -0.04043,7.97744 11.65048,16.14585 29.0118,16.35316 17.72861,0.12645 29.04189,-6.53834 29.09867,-14.77126 0.0654,-9.32796 -16.12436,-19.22794 -29.19932,-19.08428 v 8.6e-4 m 0.89977,163.59183 c 12.84701,-0.56085 30.08531,4.13754 30.11972,10.37137 0.21333,6.05233 -15.63404,19.72771 -30.97131,19.46363 -15.88437,0.68557 -31.459916,-13.01131 -31.25605,-17.75872 -0.238274,-6.9607 19.34062,-12.39541 32.10764,-12.07628 M 82.038667,231.78809 c 9.14645,11.01909 13.316674,30.37864 5.683306,36.08603 -7.221335,4.35688 -24.758125,2.56252 -37.222347,-15.34416 -8.406683,-15.02588 -7.323698,-30.31584 -1.421041,-34.80778 8.826458,-5.37621 22.463985,1.88641 32.960942,14.06591 h -8.6e-4 m 93.073083,-3.49325 c -9.89654,11.59112 -15.40695,32.73299 -8.1882,39.54229 6.90307,5.2902 25.43338,4.55043 39.1208,-14.44181 9.93869,-12.75583 6.60888,-34.05855 0.93159,-39.71519 -8.43335,-6.52286 -20.54059,1.82533 -31.86419,14.61127 v 0.003"
     fill="#BC1142"
     id="path54"
     style="fill:#aa0000;stroke-width:0.860195" />
  <path
     style="fill:#4141ff;fill-opacity:1;stroke:#000000;stroke-width:7.07108;stroke-linecap:butt;stroke-linejoin:miter;stroke-miterlimit:4;stroke-dasharray:none;stroke-opacity:1"
     d="m 242.56417,73.774516 c -25.12755,3.454455 -91.41111,11.690405 -53.89304,53.893054 46.16108,39.76425 51.53112,-28.612401 53.89304,-53.893054 z"
     id="path68"
     sodipodi:nodetypes="ccc" />
</svg>
